# MagicaVoxel @ Ephtracy

# group
o 

# material
mtllib Lava.mtl
usemtl palette

# normals
vn -1 0 0
vn 1 0 0
vn 0 0 1
vn 0 0 -1
vn 0 -1 0
vn 0 1 0

# texcoords
vt 0.115234 0.5
vt 0.138672 0.5
vt 0.841797 0.5
vt 0.845703 0.5

# verts
v -0.5 -0.2 0.1
v -0.5 -0.2 0
v -0.5 -0.2 -0.1
v -0.5 -0.2 -0.2
v -0.5 -0.2 -0.3
v -0.5 -0.1 0.1
v -0.5 -0.1 0
v -0.5 -0.1 -0.1
v -0.5 -0.1 -0.2
v -0.5 -0.1 -0.3
v -0.4 -0.2 0.2
v -0.4 -0.2 0.1
v -0.4 -0.2 -0.1
v -0.4 -0.2 -0.2
v -0.4 -0.1 0.2
v -0.4 -0.1 0.1
v -0.4 -0.1 0
v -0.4 -0.1 -0.1
v -0.4 -0.1 -0.2
v -0.4 0 0.1
v -0.4 0 0
v -0.3 -0.2 0.3
v -0.3 -0.2 0.2
v -0.3 -0.2 -0.3
v -0.3 -0.2 -0.4
v -0.3 -0.1 0.3
v -0.3 -0.1 0.2
v -0.3 -0.1 0.1
v -0.3 -0.1 0
v -0.3 -0.1 -0.1
v -0.3 -0.1 -0.2
v -0.3 -0.1 -0.3
v -0.3 -0.1 -0.4
v -0.3 0 0.2
v -0.3 0 0.1
v -0.3 0 0
v -0.3 0 -0.1
v -0.3 0 -0.2
v -0.2 -0.2 0.5
v -0.2 -0.2 0.4
v -0.2 -0.2 0.3
v -0.2 -0.1 0.5
v -0.2 -0.1 0.4
v -0.2 -0.1 0.3
v -0.2 -0.1 0.2
v -0.2 -0.1 -0.2
v -0.2 -0.1 -0.3
v -0.2 0 0.3
v -0.2 0 0.2
v -0.2 0 0.1
v -0.2 0 0
v -0.2 0 -0.1
v -0.2 0 -0.2
v -0.2 0 -0.3
v -0.2 0.1 0
v -0.2 0.1 -0.1
v -0.2 0.2 0.1
v -0.2 0.2 0
v -0.1 -0.2 -0.4
v -0.1 -0.2 -0.5
v -0.1 -0.1 -0.4
v -0.1 -0.1 -0.5
v -0.1 0 0.2
v -0.1 0 0.1
v -0.1 0 -0.1
v -0.1 0 -0.2
v -0.1 0.1 0.2
v -0.1 0.1 0.1
v -0.1 0.1 -0.1
v -0.1 0.1 -0.2
v 0 -0.2 0.5
v 0 -0.2 0.4
v 0 -0.1 0.5
v 0 -0.1 0.4
v 0 -0.1 0.3
v 0 0 0.4
v 0 0 0.3
v 0 0.1 0
v 0 0.1 -0.1
v 0 0.2 0
v 0 0.2 -0.1
v 0.1 -0.2 -0.4
v 0.1 -0.2 -0.5
v 0.1 -0.1 -0.3
v 0.1 -0.1 -0.4
v 0.1 -0.1 -0.5
v 0.1 0 -0.3
v 0.1 0 -0.4
v 0.3 -0.2 0.4
v 0.3 -0.2 0.3
v 0.3 -0.1 0.4
v 0.3 -0.1 0.3
v -0.1 -0.2 0.5
v -0.1 -0.2 0.4
v -0.1 -0.1 0.5
v -0.1 -0.1 0.4
v 0 -0.2 -0.4
v 0 -0.2 -0.5
v 0 -0.1 -0.4
v 0 -0.1 -0.5
v 0 0.1 0.1
v 0 0.1 0
v 0 0.2 0.1
v 0 0.2 0
v 0.1 -0.2 0.5
v 0.1 -0.2 0.4
v 0.1 -0.1 0.5
v 0.1 -0.1 0.4
v 0.1 -0.1 0.3
v 0.1 0 0.4
v 0.1 0 0.3
v 0.1 0 0.2
v 0.1 0 0.1
v 0.1 0 0
v 0.1 0 -0.1
v 0.1 0 -0.2
v 0.1 0.1 0.2
v 0.1 0.1 0.1
v 0.1 0.1 0
v 0.1 0.1 -0.1
v 0.1 0.1 -0.2
v 0.1 0.2 0
v 0.1 0.2 -0.1
v 0.2 -0.2 0.4
v 0.2 -0.2 0.3
v 0.2 -0.2 -0.4
v 0.2 -0.2 -0.5
v 0.2 -0.1 0.4
v 0.2 -0.1 0.3
v 0.2 -0.1 0.2
v 0.2 -0.1 -0.3
v 0.2 -0.1 -0.4
v 0.2 -0.1 -0.5
v 0.2 0 0.3
v 0.2 0 0.2
v 0.2 0 0
v 0.2 0 -0.1
v 0.2 0 -0.3
v 0.2 0 -0.4
v 0.2 0.1 0
v 0.2 0.1 -0.1
v 0.3 -0.2 -0.2
v 0.3 -0.2 -0.3
v 0.3 -0.2 -0.4
v 0.3 -0.1 0.2
v 0.3 -0.1 0.1
v 0.3 -0.1 0
v 0.3 -0.1 -0.1
v 0.3 -0.1 -0.2
v 0.3 -0.1 -0.3
v 0.3 -0.1 -0.4
v 0.3 0 0.2
v 0.3 0 0.1
v 0.3 0 0
v 0.3 0 -0.1
v 0.3 0 -0.3
v 0.4 -0.2 0.4
v 0.4 -0.2 0.3
v 0.4 -0.2 0.2
v 0.4 -0.2 0.1
v 0.4 -0.2 0
v 0.4 -0.2 -0.1
v 0.4 -0.2 -0.2
v 0.4 -0.1 0.4
v 0.4 -0.1 0.3
v 0.4 -0.1 0.2
v 0.4 -0.1 0.1
v 0.4 -0.1 0
v 0.4 -0.1 -0.1
v 0.4 -0.1 -0.2
v 0.4 0 0.1
v 0.4 0 0
v 0.5 -0.2 0.3
v 0.5 -0.2 0.2
v 0.5 -0.2 0.1
v 0.5 -0.2 0
v 0.5 -0.1 0.3
v 0.5 -0.1 0.2
v 0.5 -0.1 0.1
v 0.5 -0.1 0
v -0.2 -0.2 0.5
v -0.2 -0.1 0.5
v -0.1 -0.2 0.5
v -0.1 -0.1 0.5
v 0 -0.2 0.5
v 0 -0.1 0.5
v 0.1 -0.2 0.5
v 0.1 -0.1 0.5
v -0.1 -0.2 0.4
v -0.1 -0.1 0.4
v 0 -0.2 0.4
v 0 -0.1 0.4
v 0 0 0.4
v 0.1 -0.2 0.4
v 0.1 -0.1 0.4
v 0.1 0 0.4
v 0.2 -0.2 0.4
v 0.2 -0.1 0.4
v 0.3 -0.2 0.4
v 0.3 -0.1 0.4
v 0.4 -0.2 0.4
v 0.4 -0.1 0.4
v -0.3 -0.2 0.3
v -0.3 -0.1 0.3
v -0.2 -0.2 0.3
v -0.2 -0.1 0.3
v -0.2 0 0.3
v 0 -0.1 0.3
v 0 0 0.3
v 0.1 -0.1 0.3
v 0.1 0 0.3
v 0.2 -0.2 0.3
v 0.2 -0.1 0.3
v 0.2 0 0.3
v 0.3 -0.2 0.3
v 0.3 -0.1 0.3
v 0.4 -0.2 0.3
v 0.4 -0.1 0.3
v 0.5 -0.2 0.3
v 0.5 -0.1 0.3
v -0.4 -0.2 0.2
v -0.4 -0.1 0.2
v -0.3 -0.2 0.2
v -0.3 -0.1 0.2
v -0.3 0 0.2
v -0.2 -0.1 0.2
v -0.2 0 0.2
v -0.1 0 0.2
v -0.1 0.1 0.2
v 0 0 0.2
v 0 0.1 0.2
v 0.1 0 0.2
v 0.1 0.1 0.2
v 0.2 -0.1 0.2
v 0.2 0 0.2
v 0.3 -0.1 0.2
v 0.3 0 0.2
v -0.5 -0.2 0.1
v -0.5 -0.1 0.1
v -0.4 -0.2 0.1
v -0.4 -0.1 0.1
v -0.4 0 0.1
v -0.3 -0.1 0.1
v -0.3 0 0.1
v -0.2 0 0.1
v -0.2 0.2 0.1
v -0.1 0 0.1
v -0.1 0.1 0.1
v -0.1 0.2 0.1
v 0 0.1 0.1
v 0 0.2 0.1
v 0.3 -0.1 0.1
v 0.3 0 0.1
v 0.4 -0.2 0.1
v 0.4 -0.1 0.1
v 0.4 0 0.1
v 0.5 -0.2 0.1
v 0.5 -0.1 0.1
v 0 0.1 0
v 0 0.2 0
v 0.1 0 0
v 0.1 0.1 0
v 0.1 0.2 0
v 0.2 0 0
v 0.2 0.1 0
v -0.5 -0.2 -0.2
v -0.5 -0.1 -0.2
v -0.4 -0.2 -0.2
v -0.4 -0.1 -0.2
v 0.4 -0.2 0.2
v 0.4 -0.1 0.2
v 0.5 -0.2 0.2
v 0.5 -0.1 0.2
v -0.4 -0.1 0
v -0.4 0 0
v -0.3 -0.1 0
v -0.3 0 0
v -0.2 0.1 0
v -0.2 0.2 0
v -0.1 0.1 0
v -0.1 0.2 0
v 0 0.1 0
v 0 0.2 0
v 0.3 -0.1 0
v 0.3 0 0
v 0.4 -0.2 0
v 0.4 -0.1 0
v 0.4 0 0
v 0.5 -0.2 0
v 0.5 -0.1 0
v -0.5 -0.2 -0.1
v -0.5 -0.1 -0.1
v -0.4 -0.2 -0.1
v -0.4 -0.1 -0.1
v -0.2 0 -0.1
v -0.2 0.1 -0.1
v -0.1 0 -0.1
v -0.1 0.1 -0.1
v 0 0.1 -0.1
v 0 0.2 -0.1
v 0.1 0 -0.1
v 0.1 0.1 -0.1
v 0.1 0.2 -0.1
v 0.2 0 -0.1
v 0.2 0.1 -0.1
v -0.3 -0.1 -0.2
v -0.3 0 -0.2
v -0.2 -0.1 -0.2
v -0.2 0 -0.2
v -0.1 0 -0.2
v -0.1 0.1 -0.2
v 0 0 -0.2
v 0 0.1 -0.2
v 0.1 0 -0.2
v 0.1 0.1 -0.2
v 0.3 -0.2 -0.2
v 0.3 -0.1 -0.2
v 0.4 -0.2 -0.2
v 0.4 -0.1 -0.2
v -0.5 -0.2 -0.3
v -0.5 -0.1 -0.3
v -0.4 -0.2 -0.3
v -0.4 -0.1 -0.3
v -0.3 -0.2 -0.3
v -0.3 -0.1 -0.3
v -0.2 -0.1 -0.3
v -0.2 0 -0.3
v -0.1 -0.1 -0.3
v 0 -0.1 -0.3
v 0 0 -0.3
v 0.1 -0.1 -0.3
v 0.1 0 -0.3
v 0.2 -0.1 -0.3
v 0.2 0 -0.3
v 0.3 -0.1 -0.3
v 0.3 0 -0.3
v -0.3 -0.2 -0.4
v -0.3 -0.1 -0.4
v -0.2 -0.2 -0.4
v -0.2 -0.1 -0.4
v -0.1 -0.2 -0.4
v -0.1 -0.1 -0.4
v 0 -0.2 -0.4
v 0 -0.1 -0.4
v 0.1 -0.2 -0.4
v 0.1 -0.1 -0.4
v 0.1 0 -0.4
v 0.2 -0.2 -0.4
v 0.2 -0.1 -0.4
v 0.2 0 -0.4
v 0.3 -0.2 -0.4
v 0.3 -0.1 -0.4
v -0.1 -0.2 -0.5
v -0.1 -0.1 -0.5
v 0 -0.2 -0.5
v 0 -0.1 -0.5
v 0.1 -0.2 -0.5
v 0.1 -0.1 -0.5
v 0.2 -0.2 -0.5
v 0.2 -0.1 -0.5
v -0.2 -0.2 0.5
v -0.1 -0.2 0.5
v 0 -0.2 0.5
v 0.1 -0.2 0.5
v -0.2 -0.2 0.4
v -0.1 -0.2 0.4
v 0 -0.2 0.4
v 0.1 -0.2 0.4
v 0.2 -0.2 0.4
v 0.3 -0.2 0.4
v 0.4 -0.2 0.4
v -0.3 -0.2 0.3
v -0.2 -0.2 0.3
v 0.1 -0.2 0.3
v 0.2 -0.2 0.3
v 0.3 -0.2 0.3
v 0.4 -0.2 0.3
v 0.5 -0.2 0.3
v -0.4 -0.2 0.2
v -0.3 -0.2 0.2
v 0.1 -0.2 0.2
v 0.2 -0.2 0.2
v 0.3 -0.2 0.2
v 0.4 -0.2 0.2
v 0.5 -0.2 0.2
v -0.5 -0.2 0.1
v -0.4 -0.2 0.1
v -0.3 -0.2 0.1
v 0.4 -0.2 0.1
v 0.5 -0.2 0.1
v -0.5 -0.2 0
v -0.4 -0.2 0
v -0.3 -0.2 0
v 0.1 -0.2 0
v 0.2 -0.2 0
v 0.3 -0.2 0
v 0.4 -0.2 0
v 0.5 -0.2 0
v -0.5 -0.2 -0.1
v -0.4 -0.2 -0.1
v -0.3 -0.2 -0.1
v 0.1 -0.2 -0.1
v 0.2 -0.2 -0.1
v 0.3 -0.2 -0.1
v 0.4 -0.2 -0.1
v -0.5 -0.2 -0.2
v -0.4 -0.2 -0.2
v -0.3 -0.2 -0.2
v -0.2 -0.2 -0.2
v -0.1 -0.2 -0.2
v 0 -0.2 -0.2
v 0.2 -0.2 -0.2
v 0.3 -0.2 -0.2
v 0.4 -0.2 -0.2
v -0.5 -0.2 -0.3
v -0.4 -0.2 -0.3
v -0.3 -0.2 -0.3
v -0.2 -0.2 -0.3
v -0.1 -0.2 -0.3
v 0 -0.2 -0.3
v 0.1 -0.2 -0.3
v 0.3 -0.2 -0.3
v -0.3 -0.2 -0.4
v -0.2 -0.2 -0.4
v -0.1 -0.2 -0.4
v 0 -0.2 -0.4
v 0.1 -0.2 -0.4
v 0.2 -0.2 -0.4
v 0.3 -0.2 -0.4
v -0.1 -0.2 -0.5
v 0 -0.2 -0.5
v 0.1 -0.2 -0.5
v 0.2 -0.2 -0.5
v -0.2 -0.1 0.5
v -0.1 -0.1 0.5
v 0 -0.1 0.5
v 0.1 -0.1 0.5
v -0.2 -0.1 0.4
v -0.1 -0.1 0.4
v 0 -0.1 0.4
v 0.1 -0.1 0.4
v 0.2 -0.1 0.4
v 0.3 -0.1 0.4
v 0.4 -0.1 0.4
v -0.3 -0.1 0.3
v -0.2 -0.1 0.3
v 0 -0.1 0.3
v 0.1 -0.1 0.3
v 0.2 -0.1 0.3
v 0.3 -0.1 0.3
v 0.4 -0.1 0.3
v 0.5 -0.1 0.3
v -0.4 -0.1 0.2
v -0.3 -0.1 0.2
v -0.2 -0.1 0.2
v 0.2 -0.1 0.2
v 0.3 -0.1 0.2
v 0.4 -0.1 0.2
v 0.5 -0.1 0.2
v -0.5 -0.1 0.1
v -0.4 -0.1 0.1
v -0.3 -0.1 0.1
v 0.3 -0.1 0.1
v 0.4 -0.1 0.1
v 0.5 -0.1 0.1
v -0.5 -0.1 0
v -0.4 -0.1 0
v -0.3 -0.1 0
v 0.3 -0.1 0
v 0.4 -0.1 0
v 0.5 -0.1 0
v -0.5 -0.1 -0.1
v -0.4 -0.1 -0.1
v -0.3 -0.1 -0.1
v 0.3 -0.1 -0.1
v 0.4 -0.1 -0.1
v -0.5 -0.1 -0.2
v -0.4 -0.1 -0.2
v -0.3 -0.1 -0.2
v -0.2 -0.1 -0.2
v 0.3 -0.1 -0.2
v 0.4 -0.1 -0.2
v -0.5 -0.1 -0.3
v -0.4 -0.1 -0.3
v -0.3 -0.1 -0.3
v -0.2 -0.1 -0.3
v -0.1 -0.1 -0.3
v 0 -0.1 -0.3
v 0.1 -0.1 -0.3
v 0.2 -0.1 -0.3
v 0.3 -0.1 -0.3
v -0.3 -0.1 -0.4
v -0.2 -0.1 -0.4
v -0.1 -0.1 -0.4
v 0 -0.1 -0.4
v 0.1 -0.1 -0.4
v 0.2 -0.1 -0.4
v 0.3 -0.1 -0.4
v -0.1 -0.1 -0.5
v 0 -0.1 -0.5
v 0.1 -0.1 -0.5
v 0.2 -0.1 -0.5
v 0 0 0.4
v 0.1 0 0.4
v -0.2 0 0.3
v 0 0 0.3
v 0.1 0 0.3
v 0.2 0 0.3
v -0.3 0 0.2
v -0.2 0 0.2
v -0.1 0 0.2
v 0 0 0.2
v 0.1 0 0.2
v 0.2 0 0.2
v 0.3 0 0.2
v -0.4 0 0.1
v -0.3 0 0.1
v -0.2 0 0.1
v -0.1 0 0.1
v 0.1 0 0.1
v 0.2 0 0.1
v 0.3 0 0.1
v 0.4 0 0.1
v -0.4 0 0
v -0.3 0 0
v -0.2 0 0
v 0.1 0 0
v 0.2 0 0
v 0.3 0 0
v 0.4 0 0
v -0.3 0 -0.1
v -0.2 0 -0.1
v -0.1 0 -0.1
v 0.1 0 -0.1
v 0.2 0 -0.1
v 0.3 0 -0.1
v -0.3 0 -0.2
v -0.2 0 -0.2
v -0.1 0 -0.2
v 0 0 -0.2
v 0.1 0 -0.2
v 0.2 0 -0.2
v -0.2 0 -0.3
v 0 0 -0.3
v 0.1 0 -0.3
v 0.2 0 -0.3
v 0.3 0 -0.3
v 0.1 0 -0.4
v 0.2 0 -0.4
v -0.1 0.1 0.2
v 0 0.1 0.2
v 0.1 0.1 0.2
v -0.1 0.1 0.1
v 0 0.1 0.1
v 0.1 0.1 0.1
v -0.2 0.1 0
v -0.1 0.1 0
v 0 0.1 0
v 0.1 0.1 0
v 0.2 0.1 0
v -0.2 0.1 -0.1
v -0.1 0.1 -0.1
v 0 0.1 -0.1
v 0.1 0.1 -0.1
v 0.2 0.1 -0.1
v -0.1 0.1 -0.2
v 0 0.1 -0.2
v 0.1 0.1 -0.2
v -0.2 0.2 0.1
v -0.1 0.2 0.1
v 0 0.2 0.1
v -0.2 0.2 0
v -0.1 0.2 0
v 0 0.2 0
v 0.1 0.2 0
v 0 0.2 -0.1
v 0.1 0.2 -0.1

# faces
f 6/2/1 2/2/1 1/2/1
f 7/1/1 3/1/1 2/1/1
f 7/2/1 2/2/1 6/2/1
f 8/1/1 3/1/1 7/1/1
f 9/2/1 5/2/1 4/2/1
f 10/2/1 5/2/1 9/2/1
f 15/1/1 12/1/1 11/1/1
f 16/1/1 12/1/1 15/1/1
f 18/1/1 14/1/1 13/1/1
f 19/1/1 14/1/1 18/1/1
f 20/1/1 17/1/1 16/1/1
f 21/1/1 17/1/1 20/1/1
f 26/1/1 23/1/1 22/1/1
f 27/1/1 23/1/1 26/1/1
f 32/1/1 25/1/1 24/1/1
f 33/1/1 25/1/1 32/1/1
f 34/3/1 28/3/1 27/3/1
f 35/3/1 28/3/1 34/3/1
f 36/2/1 30/2/1 29/2/1
f 37/1/1 31/1/1 30/1/1
f 37/2/1 30/2/1 36/2/1
f 38/1/1 31/1/1 37/1/1
f 42/2/1 40/2/1 39/2/1
f 43/1/1 41/1/1 40/1/1
f 43/2/1 40/2/1 42/2/1
f 44/1/1 41/1/1 43/1/1
f 48/3/1 45/3/1 44/3/1
f 49/3/1 45/3/1 48/3/1
f 53/2/1 47/2/1 46/2/1
f 54/2/1 47/2/1 53/2/1
f 55/1/1 52/1/1 51/1/1
f 55/2/1 51/2/1 50/2/1
f 56/1/1 52/1/1 55/1/1
f 57/2/1 55/2/1 50/2/1
f 58/2/1 55/2/1 57/2/1
f 61/1/1 60/1/1 59/1/1
f 62/1/1 60/1/1 61/1/1
f 67/3/1 64/3/1 63/3/1
f 68/3/1 64/3/1 67/3/1
f 69/2/1 66/2/1 65/2/1
f 70/2/1 66/2/1 69/2/1
f 73/1/1 72/1/1 71/1/1
f 74/1/1 72/1/1 73/1/1
f 76/3/1 75/3/1 74/3/1
f 77/3/1 75/3/1 76/3/1
f 80/1/1 79/1/1 78/1/1
f 81/1/1 79/1/1 80/1/1
f 85/1/1 83/1/1 82/1/1
f 86/1/1 83/1/1 85/1/1
f 87/3/1 85/3/1 84/3/1
f 88/3/1 85/3/1 87/3/1
f 91/1/1 90/1/1 89/1/1
f 92/1/1 90/1/1 91/1/1
f 93/2/2 94/2/2 95/2/2
f 95/2/2 94/2/2 96/2/2
f 97/1/2 98/1/2 99/1/2
f 99/1/2 98/1/2 100/1/2
f 101/1/2 102/1/2 103/1/2
f 103/1/2 102/1/2 104/1/2
f 105/1/2 106/1/2 107/1/2
f 107/1/2 106/1/2 108/1/2
f 108/3/2 109/3/2 110/3/2
f 110/3/2 109/3/2 111/3/2
f 112/2/2 113/2/2 117/2/2
f 113/1/2 114/1/2 118/1/2
f 117/2/2 113/2/2 118/2/2
f 118/1/2 114/1/2 119/1/2
f 115/1/2 116/1/2 120/1/2
f 120/1/2 116/1/2 121/1/2
f 119/1/2 120/1/2 122/1/2
f 122/1/2 120/1/2 123/1/2
f 124/2/2 125/2/2 128/2/2
f 128/2/2 125/2/2 129/2/2
f 126/1/2 127/1/2 132/1/2
f 132/1/2 127/1/2 133/1/2
f 129/3/2 130/3/2 134/3/2
f 134/3/2 130/3/2 135/3/2
f 131/3/2 132/3/2 138/3/2
f 138/3/2 132/3/2 139/3/2
f 136/2/2 137/2/2 140/2/2
f 140/2/2 137/2/2 141/2/2
f 142/3/2 143/3/2 149/3/2
f 143/1/2 144/1/2 150/1/2
f 149/3/2 143/3/2 150/3/2
f 150/1/2 144/1/2 151/1/2
f 145/1/2 146/1/2 152/1/2
f 152/1/2 146/1/2 153/1/2
f 147/1/2 148/1/2 154/1/2
f 148/3/2 149/3/2 155/3/2
f 154/1/2 148/1/2 155/1/2
f 149/3/2 150/3/2 155/3/2
f 155/3/2 150/3/2 156/3/2
f 157/1/2 158/1/2 164/1/2
f 164/1/2 158/1/2 165/1/2
f 159/2/2 160/2/2 166/2/2
f 166/2/2 160/2/2 167/2/2
f 161/1/2 162/1/2 168/1/2
f 162/3/2 163/3/2 169/3/2
f 168/1/2 162/1/2 169/1/2
f 169/3/2 163/3/2 170/3/2
f 167/1/2 168/1/2 171/1/2
f 171/1/2 168/1/2 172/1/2
f 173/3/2 174/3/2 177/3/2
f 177/3/2 174/3/2 178/3/2
f 175/1/2 176/1/2 179/1/2
f 179/1/2 176/1/2 180/1/2
f 183/2/3 182/2/3 181/2/3
f 184/2/3 182/2/3 183/2/3
f 187/1/3 186/1/3 185/1/3
f 188/1/3 186/1/3 187/1/3
f 191/1/3 190/1/3 189/1/3
f 192/1/3 190/1/3 191/1/3
f 195/3/3 193/3/3 192/3/3
f 196/3/3 193/3/3 195/3/3
f 197/2/3 195/2/3 194/2/3
f 198/2/3 195/2/3 197/2/3
f 201/1/3 200/1/3 199/1/3
f 202/1/3 200/1/3 201/1/3
f 205/1/3 204/1/3 203/1/3
f 206/1/3 204/1/3 205/1/3
f 208/3/3 207/3/3 206/3/3
f 209/3/3 207/3/3 208/3/3
f 213/3/3 211/3/3 210/3/3
f 214/3/3 211/3/3 213/3/3
f 215/3/3 213/3/3 212/3/3
f 216/3/3 213/3/3 215/3/3
f 219/3/3 218/3/3 217/3/3
f 220/3/3 218/3/3 219/3/3
f 223/1/3 222/1/3 221/1/3
f 224/1/3 222/1/3 223/1/3
f 226/3/3 225/3/3 224/3/3
f 227/3/3 225/3/3 226/3/3
f 230/3/3 229/3/3 228/3/3
f 231/3/3 229/3/3 230/3/3
f 232/2/3 231/2/3 230/2/3
f 233/2/3 231/2/3 232/2/3
f 236/1/3 235/1/3 234/1/3
f 237/1/3 235/1/3 236/1/3
f 240/2/3 239/2/3 238/2/3
f 241/2/3 239/2/3 240/2/3
f 243/1/3 242/1/3 241/1/3
f 244/1/3 242/1/3 243/1/3
f 247/2/3 246/2/3 245/2/3
f 248/2/3 246/2/3 247/2/3
f 249/2/3 246/2/3 248/2/3
f 250/1/3 249/1/3 248/1/3
f 251/1/3 249/1/3 250/1/3
f 255/1/3 253/1/3 252/1/3
f 256/1/3 253/1/3 255/1/3
f 257/1/3 255/1/3 254/1/3
f 258/1/3 255/1/3 257/1/3
f 262/1/3 260/1/3 259/1/3
f 263/1/3 260/1/3 262/1/3
f 264/2/3 262/2/3 261/2/3
f 265/2/3 262/2/3 264/2/3
f 268/2/3 267/2/3 266/2/3
f 269/2/3 267/2/3 268/2/3
f 270/3/4 271/3/4 272/3/4
f 272/3/4 271/3/4 273/3/4
f 274/1/4 275/1/4 276/1/4
f 276/1/4 275/1/4 277/1/4
f 278/2/4 279/2/4 280/2/4
f 280/2/4 279/2/4 281/2/4
f 280/1/4 281/1/4 282/1/4
f 282/1/4 281/1/4 283/1/4
f 284/1/4 285/1/4 287/1/4
f 287/1/4 285/1/4 288/1/4
f 286/1/4 287/1/4 289/1/4
f 289/1/4 287/1/4 290/1/4
f 291/1/4 292/1/4 293/1/4
f 293/1/4 292/1/4 294/1/4
f 295/1/4 296/1/4 297/1/4
f 297/1/4 296/1/4 298/1/4
f 299/1/4 300/1/4 302/1/4
f 302/1/4 300/1/4 303/1/4
f 301/2/4 302/2/4 304/2/4
f 304/2/4 302/2/4 305/2/4
f 306/1/4 307/1/4 308/1/4
f 308/1/4 307/1/4 309/1/4
f 310/2/4 311/2/4 312/2/4
f 312/2/4 311/2/4 313/2/4
f 312/1/4 313/1/4 314/1/4
f 314/1/4 313/1/4 315/1/4
f 316/3/4 317/3/4 318/3/4
f 318/3/4 317/3/4 319/3/4
f 320/2/4 321/2/4 322/2/4
f 322/2/4 321/2/4 323/2/4
f 322/1/4 323/1/4 324/1/4
f 324/1/4 323/1/4 325/1/4
f 326/2/4 327/2/4 328/2/4
f 328/2/4 327/2/4 329/2/4
f 329/2/4 327/2/4 330/2/4
f 329/3/4 330/3/4 331/3/4
f 331/3/4 330/3/4 332/3/4
f 333/3/4 334/3/4 335/3/4
f 335/3/4 334/3/4 336/3/4
f 337/1/4 338/1/4 339/1/4
f 339/1/4 338/1/4 340/1/4
f 339/3/4 340/3/4 341/3/4
f 341/3/4 340/3/4 342/3/4
f 343/3/4 344/3/4 345/3/4
f 345/3/4 344/3/4 346/3/4
f 346/3/4 347/3/4 349/3/4
f 349/3/4 347/3/4 350/3/4
f 348/1/4 349/1/4 351/1/4
f 351/1/4 349/1/4 352/1/4
f 353/1/4 354/1/4 355/1/4
f 355/1/4 354/1/4 356/1/4
f 357/1/4 358/1/4 359/1/4
f 359/1/4 358/1/4 360/1/4
f 365/2/5 362/2/5 361/2/5
f 366/2/5 362/2/5 365/2/5
f 367/1/5 364/1/5 363/1/5
f 368/1/5 364/1/5 367/1/5
f 373/1/5 366/1/5 365/1/5
f 373/1/5 367/1/5 366/1/5
f 373/1/5 368/1/5 367/1/5
f 374/2/5 369/2/5 368/2/5
f 374/1/5 368/1/5 373/1/5
f 375/2/5 369/2/5 374/2/5
f 376/1/5 371/1/5 370/1/5
f 377/1/5 371/1/5 376/1/5
f 380/1/5 375/1/5 374/1/5
f 380/1/5 373/1/5 372/1/5
f 380/1/5 374/1/5 373/1/5
f 381/1/5 375/1/5 380/1/5
f 382/3/5 376/3/5 375/3/5
f 382/1/5 375/1/5 381/1/5
f 383/1/5 377/1/5 376/1/5
f 383/3/5 376/3/5 382/3/5
f 384/3/5 378/3/5 377/3/5
f 384/1/5 377/1/5 383/1/5
f 385/3/5 378/3/5 384/3/5
f 387/1/5 381/1/5 380/1/5
f 387/1/5 380/1/5 379/1/5
f 388/1/5 381/1/5 387/1/5
f 389/2/5 384/2/5 383/2/5
f 391/2/5 387/2/5 386/2/5
f 392/3/5 388/3/5 387/3/5
f 392/2/5 387/2/5 391/2/5
f 393/1/5 381/1/5 388/1/5
f 393/3/5 388/3/5 392/3/5
f 394/2/5 382/2/5 381/2/5
f 394/1/5 381/1/5 393/1/5
f 395/1/5 383/1/5 382/1/5
f 395/2/5 382/2/5 394/2/5
f 396/2/5 389/2/5 383/2/5
f 396/1/5 383/1/5 395/1/5
f 397/1/5 390/1/5 389/1/5
f 397/2/5 389/2/5 396/2/5
f 398/1/5 390/1/5 397/1/5
f 399/1/5 392/1/5 391/1/5
f 400/2/5 393/2/5 392/2/5
f 400/1/5 392/1/5 399/1/5
f 401/1/5 394/1/5 393/1/5
f 401/2/5 393/2/5 400/2/5
f 401/1/5 396/1/5 395/1/5
f 401/1/5 397/1/5 396/1/5
f 401/1/5 395/1/5 394/1/5
f 402/1/5 397/1/5 401/1/5
f 403/1/5 397/1/5 402/1/5
f 404/1/5 397/1/5 403/1/5
f 405/1/5 397/1/5 404/1/5
f 407/1/5 401/1/5 400/1/5
f 407/1/5 402/1/5 401/1/5
f 408/1/5 402/1/5 407/1/5
f 409/1/5 402/1/5 408/1/5
f 410/1/5 402/1/5 409/1/5
f 411/1/5 402/1/5 410/1/5
f 412/1/5 404/1/5 403/1/5
f 412/3/5 403/3/5 402/3/5
f 413/3/5 405/3/5 404/3/5
f 413/1/5 404/1/5 412/1/5
f 414/3/5 405/3/5 413/3/5
f 415/2/5 407/2/5 406/2/5
f 416/1/5 408/1/5 407/1/5
f 416/2/5 407/2/5 415/2/5
f 417/3/5 409/3/5 408/3/5
f 417/1/5 408/1/5 416/1/5
f 418/1/5 410/1/5 409/1/5
f 418/3/5 409/3/5 417/3/5
f 419/3/5 411/3/5 410/3/5
f 419/1/5 410/1/5 418/1/5
f 420/1/5 402/1/5 411/1/5
f 420/3/5 411/3/5 419/3/5
f 421/3/5 412/3/5 402/3/5
f 421/1/5 402/1/5 420/1/5
f 421/3/5 413/3/5 412/3/5
f 422/3/5 413/3/5 421/3/5
f 423/1/5 418/1/5 417/1/5
f 424/3/5 419/3/5 418/3/5
f 424/1/5 418/1/5 423/1/5
f 425/1/5 420/1/5 419/1/5
f 425/3/5 419/3/5 424/3/5
f 426/3/5 421/3/5 420/3/5
f 426/1/5 420/1/5 425/1/5
f 427/1/5 422/1/5 421/1/5
f 427/3/5 421/3/5 426/3/5
f 428/1/5 422/1/5 427/1/5
f 429/1/5 422/1/5 428/1/5
f 430/1/5 426/1/5 425/1/5
f 431/1/5 426/1/5 430/1/5
f 432/1/5 428/1/5 427/1/5
f 433/1/5 428/1/5 432/1/5
f 434/2/6 435/2/6 438/2/6
f 438/2/6 435/2/6 439/2/6
f 436/1/6 437/1/6 440/1/6
f 440/1/6 437/1/6 441/1/6
f 438/1/6 439/1/6 446/1/6
f 439/1/6 440/1/6 446/1/6
f 446/1/6 440/1/6 447/1/6
f 441/2/6 442/2/6 448/2/6
f 448/2/6 442/2/6 449/2/6
f 443/1/6 444/1/6 450/1/6
f 450/1/6 444/1/6 451/1/6
f 445/1/6 446/1/6 454/1/6
f 454/1/6 446/1/6 455/1/6
f 449/3/6 450/3/6 456/3/6
f 450/1/6 451/1/6 457/1/6
f 456/3/6 450/3/6 457/3/6
f 451/3/6 452/3/6 458/3/6
f 457/1/6 451/1/6 458/1/6
f 458/3/6 452/3/6 459/3/6
f 453/1/6 454/1/6 461/1/6
f 461/1/6 454/1/6 462/1/6
f 457/2/6 458/2/6 463/2/6
f 463/2/6 458/2/6 464/2/6
f 460/2/6 461/2/6 466/2/6
f 466/2/6 461/2/6 467/2/6
f 464/1/6 465/1/6 470/1/6
f 470/1/6 465/1/6 471/1/6
f 466/1/6 467/1/6 472/1/6
f 467/2/6 468/2/6 473/2/6
f 472/1/6 467/1/6 473/1/6
f 473/2/6 468/2/6 474/2/6
f 469/1/6 470/1/6 475/1/6
f 475/1/6 470/1/6 476/1/6
f 473/1/6 474/1/6 478/1/6
f 478/1/6 474/1/6 479/1/6
f 475/3/6 476/3/6 481/3/6
f 481/3/6 476/3/6 482/3/6
f 477/2/6 478/2/6 483/2/6
f 478/1/6 479/1/6 484/1/6
f 483/2/6 478/2/6 484/2/6
f 479/3/6 480/3/6 485/3/6
f 484/1/6 479/1/6 485/1/6
f 485/3/6 480/3/6 486/3/6
f 485/1/6 486/1/6 492/1/6
f 486/3/6 487/3/6 493/3/6
f 492/1/6 486/1/6 493/1/6
f 487/1/6 488/1/6 494/1/6
f 493/3/6 487/3/6 494/3/6
f 488/3/6 489/3/6 495/3/6
f 494/1/6 488/1/6 495/1/6
f 495/3/6 489/3/6 496/3/6
f 490/1/6 491/1/6 497/1/6
f 497/1/6 491/1/6 498/1/6
f 494/1/6 495/1/6 499/1/6
f 499/1/6 495/1/6 500/1/6
f 496/1/6 497/1/6 501/1/6
f 501/1/6 497/1/6 502/1/6
f 503/3/6 504/3/6 506/3/6
f 506/3/6 504/3/6 507/3/6
f 505/3/6 506/3/6 510/3/6
f 510/3/6 506/3/6 511/3/6
f 506/2/6 507/2/6 512/2/6
f 511/3/6 506/3/6 512/3/6
f 507/3/6 508/3/6 513/3/6
f 512/2/6 507/2/6 513/2/6
f 513/3/6 508/3/6 514/3/6
f 510/3/6 511/3/6 517/3/6
f 509/3/6 510/3/6 517/3/6
f 517/3/6 511/3/6 518/3/6
f 518/3/6 511/3/6 519/3/6
f 513/2/6 514/2/6 520/2/6
f 514/1/6 515/1/6 521/1/6
f 520/2/6 514/2/6 521/2/6
f 521/1/6 515/1/6 522/1/6
f 516/1/6 517/1/6 524/1/6
f 517/3/6 518/3/6 525/3/6
f 524/1/6 517/1/6 525/1/6
f 525/3/6 518/3/6 526/3/6
f 520/1/6 521/1/6 527/1/6
f 521/2/6 522/2/6 528/2/6
f 527/1/6 521/1/6 528/1/6
f 522/1/6 523/1/6 529/1/6
f 528/2/6 522/2/6 529/2/6
f 529/1/6 523/1/6 530/1/6
f 525/2/6 526/2/6 531/2/6
f 531/2/6 526/2/6 532/2/6
f 528/1/6 529/1/6 535/1/6
f 535/1/6 529/1/6 536/1/6
f 531/1/6 532/1/6 537/1/6
f 532/2/6 533/2/6 538/2/6
f 537/1/6 532/1/6 538/1/6
f 538/2/6 533/2/6 539/2/6
f 534/1/6 535/1/6 541/1/6
f 535/3/6 536/3/6 542/3/6
f 541/1/6 535/1/6 542/1/6
f 539/2/6 540/2/6 543/2/6
f 538/2/6 539/2/6 543/2/6
f 540/3/6 541/3/6 544/3/6
f 543/2/6 540/2/6 544/2/6
f 541/3/6 542/3/6 544/3/6
f 544/3/6 542/3/6 545/3/6
f 542/3/6 536/3/6 546/3/6
f 545/3/6 542/3/6 546/3/6
f 546/3/6 536/3/6 547/3/6
f 545/3/6 546/3/6 548/3/6
f 548/3/6 546/3/6 549/3/6
f 550/3/6 551/3/6 553/3/6
f 551/2/6 552/2/6 554/2/6
f 553/3/6 551/3/6 554/3/6
f 554/2/6 552/2/6 555/2/6
f 554/1/6 555/1/6 558/1/6
f 558/1/6 555/1/6 559/1/6
f 556/1/6 557/1/6 561/1/6
f 557/2/6 558/2/6 562/2/6
f 561/1/6 557/1/6 562/1/6
f 562/2/6 558/2/6 563/2/6
f 559/2/6 560/2/6 564/2/6
f 564/2/6 560/2/6 565/2/6
f 562/2/6 563/2/6 566/2/6
f 563/1/6 564/1/6 567/1/6
f 566/2/6 563/2/6 567/2/6
f 567/1/6 564/1/6 568/1/6
f 569/2/6 570/2/6 572/2/6
f 570/1/6 571/1/6 573/1/6
f 572/2/6 570/2/6 573/2/6
f 573/1/6 571/1/6 574/1/6
f 574/1/6 575/1/6 576/1/6
f 576/1/6 575/1/6 577/1/6
